<svg xmlns="http://www.w3.org/2000/svg" xmlns:xlink="http://www.w3.org/1999/xlink" width="315" height="315" viewBox="0 0 315 315" fill="none">
<rect x="0" y="0" width="315" height="315"   fill="url(#pattern0)" >
</rect>
<path d="M245 158C272.614 158 295 135.614 295 108C295 80.3857 272.614 58 245 58C217.386 58 195 80.3857 195 108C195 135.614 217.386 158 245 158ZM245 138.374C261.775 138.374 275.374 124.775 275.374 108C275.374 91.225 261.775 77.6262 245 77.6262C228.225 77.6262 214.626 91.225 214.626 108C214.626 124.775 228.225 138.374 245 138.374Z" fill-rule="evenodd"  fill="#9C9C9C" >
</path>
<path d="M13 149L46.1983 149L52.9734 130.692L37.7293 99.5L13 149Z"   fill="#9C9C9C" >
</path>
<path d="M101.077 124.25L64.1526 50L52.9734 75.4281L87.8656 149L113 149L101.077 124.25Z"   fill="#9C9C9C" >
</path>
<defs>
<pattern id="pattern0" patternContentUnits="objectBoundingBox" width="1" height="1">
<use transform="translate(0, 0) scale(1, 1) rotate(0)" xlink:href="#imageZ0Wcqzu4b6HzN-PfZi5Xz" />
</pattern>

<image id="imageZ0Wcqzu4b6HzN-PfZi5Xz" width="1" height="1"  />

</defs>
</svg>
